<svg id="Capa_2" data-name="Capa 2" xmlns="http://www.w3.org/2000/svg" viewBox="0 0 576 207.37"><defs><style>.cls-1{fill:#666;}.cls-2{fill:#1b1f7b;}</style></defs><path class="cls-1" d="M208,170.26l.17,44.11H134V183q43.88-29.88,43.88-87.57a95,95,0,0,0-16.74-54.73q-16.75-24.54-45-24.55-32.34,0-47.92,22.48T52.6,94.42q0,33.27,9.81,52.65T98.2,183v31.35H22.29L22,170.26h6.34a55.34,55.34,0,0,0,2.12,14.94c1.05,3.45,8,14.32,15.09,14.32H88.6L89,186q-33.78-14.79-49.36-33.73-17-21.88-17-59.31T49.85,31.26Q77.14,7,116,7t65.38,24.41q26.55,24.4,26.56,63.45,0,63.6-64.66,91.12l.38,13.54h40.65c7.12,0,15.3-7.42,16.35-14.32l1.06-14.94Z" transform="translate(-22 -7)"/><path class="cls-2" d="M356,170.26,354.55,213a.56.56,0,0,1-.53.55H229.47a.56.56,0,0,1-.53-.67l1.52-9.78a.56.56,0,0,1,.47-.48q16.08-2,24.7-7.71a.63.63,0,0,0,.26-.51V36.3a.59.59,0,0,0-.3-.53q-10.2-5.66-26.23-7.71a.55.55,0,0,1-.48-.6c.2-2.25.63-5.44,1.28-9.55a.57.57,0,0,1,.53-.5h77a.57.57,0,0,1,.53.66L307,27.56a.54.54,0,0,1-.46.49q-15,2.06-25.23,7.72a.59.59,0,0,0-.29.53V195.92a.56.56,0,0,0,.53.58h51.88c.18,0,.28-.19.45-.25,7.35-3,12.63-13.35,13.69-26" transform="translate(-22 -7)"/><path class="cls-2" d="M545.87,58h-1.13L487.53,213.55H470.9l-60-158.21h-1.13V194.73q9.3,5.6,27.34,7.94L436,213.55h-71.3l1.41-10.88q16.35-2.05,25.65-7.94V35.93Q381.28,30.05,364.66,28l1.13-10.58h54.39l63.12,160,60.87-160H598q-1.12,7.05-1.41,10.58-15.5,1.77-25.93,7.94v158.8q9.32,5.6,27.34,7.94l-1.13,10.88H518.53q1.13-7.94,1.41-10.88,16.06-2.05,25.93-7.94Z" transform="translate(-22 -7)"/></svg>